<svg xmlns="http://www.w3.org/2000/svg" xmlns:xlink="http://www.w3.org/1999/xlink" width="40" height="40" viewBox="0 0 40 40">
  <defs>
    <clipPath id="clip-path">
      <rect id="Rectangle_2599" data-name="Rectangle 2599" width="40" height="40" transform="translate(-7090 -22201)" fill="none" stroke="#707070" stroke-width="1"/>
    </clipPath>
  </defs>
  <g id="Mask_Group_215" data-name="Mask Group 215" transform="translate(7090 22201)" clip-path="url(#clip-path)">
    <g id="Group_6454" data-name="Group 6454" transform="translate(-7090 -22188.945)">
      <path id="Path_16691" data-name="Path 16691" d="M346.358,240.615a42.672,42.672,0,0,1-4.925.381,51.09,51.09,0,0,1-12.876-1.179,17.005,17.005,0,0,0-2.277-.56c.161.506,1.128,1.251,1.668,1.6,2.776,1.755,5.122,1.645,8.424,1.782,1.594.078,7.624-.1,9.194-.3a24.5,24.5,0,0,1,3.054-.124c-.042.1.145.082-.378.131a2.691,2.691,0,0,0-.447.028c-2.169.267-4.265.563-6.434.855a30.264,30.264,0,0,1-7.825.413l-.856.033a7.844,7.844,0,0,0,1.623,1,8.9,8.9,0,0,0,1.973.694c1.764.41,3.014-.076,4.621-.247,1.532-.174,2.882-.407,4.378-.607a43.53,43.53,0,0,1,4.488-.577,1.537,1.537,0,0,1,.591.079c-.462.326-4.08.6-4.979.727.05.5,1.037.823,1.482.845a12.227,12.227,0,0,0,1.941-.179,13.509,13.509,0,0,1,4.026-.251c2.911.516,3.48,3.308,4.241,4.466.1.179.032.1.178.158a11.835,11.835,0,0,0-.781-5.292,9.312,9.312,0,0,0-3.27-3.049,12.779,12.779,0,0,0-4.363-1.982,43.555,43.555,0,0,0-6.031-.544,71.938,71.938,0,0,1-11.327-1.7A15.978,15.978,0,0,1,326.8,235.5c-.651-.356-1.376-.74-2.063-1.122a17.978,17.978,0,0,0-2.063-1.122,5.51,5.51,0,0,0,1.288,2.528,8.239,8.239,0,0,0,2.224,1.628c4.311,2.278,11.666,3.112,16.686,3.059a14.461,14.461,0,0,1,3.121.028l.294.064c.073.028.036.027.072.053Z" transform="translate(-322.672 -233.254)" fill="#515862" fill-rule="evenodd"/>
      <path id="Path_16692" data-name="Path 16692" d="M464.561,246.543c.02.353.751.74,1.044.88.55.253,1.141.433,1.288.49.219.111.076-.021.142.158a7.588,7.588,0,0,1-1.554-.4,1.925,1.925,0,0,0-1.535-.025,17.94,17.94,0,0,0-2.363.813,1.572,1.572,0,0,1-.153.068c-.155.093-.075,0-.12.145.072.054,0,.025.109.081l2.1.681a13.308,13.308,0,0,1,3.681,2.114,5.4,5.4,0,0,1,.755.665c.142.158.531.629.792.666.52-.677,1.2-3.908,4.776-4.16.939-.054,1.2.059.99-.328a1.4,1.4,0,0,0-.827-.718c-.479-.174-.252-.213-.711-.788-1.41-1.827-3.731-1.112-5.815-.637a10.3,10.3,0,0,1-1.21.217,12.974,12.974,0,0,1-1.391.083Zm7.606.308c-.346-.184-.678-.261-.723-.169s.208.316.529.522.67.27.723.169c.038-.07-.073-.159-.258-.3a2.136,2.136,0,0,0-.271-.224Z" transform="translate(-434.581 -243.3)" fill="#515862" fill-rule="evenodd"/>
    </g>
  </g>
</svg>
