<svg xmlns="http://www.w3.org/2000/svg" xmlns:xlink="http://www.w3.org/1999/xlink" width="40" height="40" viewBox="0 0 40 40">
  <defs>
    <clipPath id="clip-path">
      <rect id="Rectangle_2607" data-name="Rectangle 2607" width="40" height="40" transform="translate(-6750 -22201)" fill="none" stroke="#707070" stroke-width="1"/>
    </clipPath>
    <clipPath id="clip-path-2">
      <rect id="Rectangle_2606" data-name="Rectangle 2606" width="38" height="38" transform="translate(1009 4090)" fill="#515862" stroke="#707070" stroke-width="1"/>
    </clipPath>
    <clipPath id="clip-path-3">
      <rect id="Rectangle_2605" data-name="Rectangle 2605" width="24" height="40" transform="translate(1010 4147)" fill="#515862" stroke="#707070" stroke-width="1"/>
    </clipPath>
  </defs>
  <g id="Mask_Group_223" data-name="Mask Group 223" transform="translate(6750 22201)" clip-path="url(#clip-path)">
    <g id="Mask_Group_222" data-name="Mask Group 222" transform="translate(-7759 -26290)" clip-path="url(#clip-path-2)">
      <g id="Mask_Group_221" data-name="Mask Group 221" transform="translate(6 -59)" clip-path="url(#clip-path-3)">
        <g id="Group_6463" data-name="Group 6463" transform="translate(925.126 4282.52)">
          <path id="Path_4785" data-name="Path 4785" d="M105.453-79.47c-.106,0-.215,0-.325-.005a5.626,5.626,0,0,1-1.992-.394A3.834,3.834,0,0,1,101.7-80.9c-1.713-1.973-1.43-5.684-.961-10.035a13.646,13.646,0,0,0-4.331,1.805c-.818.487-1.655,1-2.542,1.545A71.872,71.872,0,0,1,82.425-81.5c-2.869,1.112-7.413,1.656-13.14,1.572-2.731-.04-5.661-.222-8.709-.541-3.071-.322-6.2-.776-9.292-1.35a96.439,96.439,0,0,1-17.752-4.939,47.85,47.85,0,0,1-7.174-3.509,22.451,22.451,0,0,1-5.189-4.184l.821-.72A21.378,21.378,0,0,0,26.929-91.2a46.764,46.764,0,0,0,7.009,3.427,95.335,95.335,0,0,0,17.546,4.879c3.066.569,6.164,1.019,9.206,1.338,3.015.316,5.912.5,8.611.535a57.585,57.585,0,0,0,7.346-.312,22.385,22.385,0,0,0,5.383-1.186A71.024,71.024,0,0,0,93.3-88.511c.89-.546,1.73-1.062,2.555-1.553a14.139,14.139,0,0,1,5.012-2,70.448,70.448,0,0,0,.528-7.13l1.092.008a69.417,69.417,0,0,1-.511,7.029q.318,0,.631.018a9.543,9.543,0,0,1,5.627,2.7,7.726,7.726,0,0,1,2.233,3.387,5.631,5.631,0,0,1,.007,3.769C110.054-81.216,108.849-79.47,105.453-79.47Zm-3.6-11.588a45.764,45.764,0,0,0-.376,5.537,6.048,6.048,0,0,0,1.05,3.908,3.428,3.428,0,0,0,2.634,1.045,5.646,5.646,0,0,0,2.932-.573,2.973,2.973,0,0,0,1.362-1.539,4.546,4.546,0,0,0-.029-3.032,6.619,6.619,0,0,0-1.912-2.9,11.85,11.85,0,0,0-2.5-1.735,6.559,6.559,0,0,0-2.485-.7A6.437,6.437,0,0,0,101.854-91.057Z" transform="translate(-3.432 -17.772)" fill="#515862"/>
          <g id="Group_6460" data-name="Group 6460" transform="translate(90.385 -131.796)">
            <path id="Path_16731" data-name="Path 16731" d="M209.494-98.5h0l.049-.021Z" transform="translate(-196.461 113.659)" fill="#515862"/>
            <path id="Path_16732" data-name="Path 16732" d="M210.417-121.663a15.314,15.314,0,0,0,1.563-6.533v-.672a2.114,2.114,0,0,0-2.111-2.111h-.91v.568h.91a1.545,1.545,0,0,1,1.543,1.543v.672a14.013,14.013,0,0,1-.371,3.086,14.5,14.5,0,0,1-1.131,3.193l.508.254Z" transform="translate(-196.169 131.351)" fill="#515862"/>
            <path id="Path_16733" data-name="Path 16733" d="M182.41-121.663l.508-.254a14.5,14.5,0,0,1-1.131-3.193,14.011,14.011,0,0,1-.371-3.086v-.672a1.545,1.545,0,0,1,1.543-1.543h.91v-.568h-.91a2.114,2.114,0,0,0-2.111,2.111v.672a15.32,15.32,0,0,0,1.563,6.533Z" transform="translate(-180.847 131.351)" fill="#515862"/>
            <path id="Path_16734" data-name="Path 16734" d="M190.18-106.464a6.365,6.365,0,0,0,4.033-1.428,9.817,9.817,0,0,0,2.615-3.358.625.625,0,0,0-.279-.838.625.625,0,0,0-.838.279,8.586,8.586,0,0,1-2.273,2.938,5.146,5.146,0,0,1-3.257,1.158,5.146,5.146,0,0,1-3.257-1.158,8.591,8.591,0,0,1-2.273-2.938.624.624,0,0,0-.838-.279.624.624,0,0,0-.279.838,9.81,9.81,0,0,0,2.614,3.358A6.365,6.365,0,0,0,190.18-106.464Z" transform="translate(-182.275 121.091)" fill="#515862"/>
            <path id="Path_16735" data-name="Path 16735" d="M205.663-131.137a.659.659,0,0,0,.659.659.658.658,0,0,0,.5-.233h.344a.426.426,0,0,0,.426-.426.425.425,0,0,0-.125-.3.426.426,0,0,0-.3-.125h-.344a.658.658,0,0,0-.5-.233A.659.659,0,0,0,205.663-131.137Z" transform="translate(-194.373 131.796)" fill="#515862"/>
            <path id="Path_16736" data-name="Path 16736" d="M188.47-131.137a.659.659,0,0,1-.659.659.658.658,0,0,1-.5-.233h-.344a.426.426,0,0,1-.426-.426.425.425,0,0,1,.125-.3.426.426,0,0,1,.3-.125h.344a.658.658,0,0,1,.5-.233A.659.659,0,0,1,188.47-131.137Z" transform="translate(-183.949 131.796)" fill="#515862"/>
            <path id="Path_16737" data-name="Path 16737" d="M196.165-99.1h1.578a.517.517,0,0,0,.517-.517v-.478h-2.613v.478a.517.517,0,0,0,.517.517Z" transform="translate(-188.914 114.52)" fill="#515862"/>
          </g>
          <path id="Path_16738" data-name="Path 16738" d="M20.758-97.842a3.61,3.61,0,0,1,3.606,3.606,3.61,3.61,0,0,1-3.606,3.606,3.61,3.61,0,0,1-3.606-3.606A3.61,3.61,0,0,1,20.758-97.842Z" transform="translate(-1.242 -18.506)" fill="#515862"/>
          <g id="Group_6462" data-name="Group 6462" transform="translate(14.874 -117.516)">
            <g id="Group_6461" data-name="Group 6461">
              <path id="Path_16739" data-name="Path 16739" d="M19.413-100.409a4.539,4.539,0,0,1,4.539,4.539,4.539,4.539,0,0,1-4.539,4.539,4.539,4.539,0,0,1-4.539-4.539A4.539,4.539,0,0,1,19.413-100.409Zm0,1.02a3.52,3.52,0,0,1,3.52,3.52,3.52,3.52,0,0,1-3.52,3.52,3.52,3.52,0,0,1-3.52-3.52A3.519,3.519,0,0,1,19.413-99.389Z" transform="translate(-14.874 100.409)" fill="#515862" fill-rule="evenodd"/>
              <circle id="Ellipse_2366" data-name="Ellipse 2366" cx="2.054" cy="2.054" r="2.054" transform="translate(2.484 2.485)" fill="#515862"/>
            </g>
            <path id="Path_16740" data-name="Path 16740" d="M24.122-91.771a.61.61,0,0,1,.609.609.61.61,0,0,1-.609.609.61.61,0,0,1-.609-.609A.61.61,0,0,1,24.122-91.771Z" transform="translate(-19.583 95.701)" fill="#515862"/>
          </g>
        </g>
      </g>
    </g>
  </g>
</svg>
