<svg xmlns="http://www.w3.org/2000/svg" xmlns:xlink="http://www.w3.org/1999/xlink" width="40" height="40" viewBox="0 0 40 40">
  <defs>
    <clipPath id="clip-path">
      <rect id="Rectangle_2601" data-name="Rectangle 2601" width="40" height="40" transform="translate(-6967 -22201)" fill="none" stroke="#707070" stroke-width="1"/>
    </clipPath>
  </defs>
  <g id="Mask_Group_217" data-name="Mask Group 217" transform="translate(6967 22201)" clip-path="url(#clip-path)">
    <g id="Group_6456" data-name="Group 6456" transform="translate(-6961.661 -22192.098)">
      <path id="Path_16700" data-name="Path 16700" d="M67.026,97.621a8.285,8.285,0,0,1,2.728,4.92,11.621,11.621,0,0,1-8.762-8.372A14.444,14.444,0,0,1,67.026,97.621Z" transform="translate(-58.706 -82.284)" fill="#515862" fill-rule="evenodd"/>
      <path id="Path_16701" data-name="Path 16701" d="M67.892,101.953a11.631,11.631,0,0,1-6.779-7.628c0-.045-.007-.089-.01-.135.1.02.209.047.326.08a15.053,15.053,0,0,1,4.916,4.407A9.652,9.652,0,0,1,67.892,101.953Z" transform="translate(-58.788 -82.299)" fill="#515862" fill-rule="evenodd"/>
      <path id="Path_16702" data-name="Path 16702" d="M75.267,102.412a8.692,8.692,0,0,0-2.9-5.381,16.191,16.191,0,0,0-4.621-3.018,19.85,19.85,0,0,1,13.349,7.9,11.581,11.581,0,0,1-3.885.666,11.731,11.731,0,0,1-1.945-.162Z" transform="translate(-63.733 -82.167)" fill="#515862" fill-rule="evenodd"/>
      <path id="Path_16703" data-name="Path 16703" d="M76.094,102.523a8.692,8.692,0,0,0-2.9-5.381A16.013,16.013,0,0,0,69.4,94.51q-.278-.185-.545-.348c.216.03.444.068.683.111a19.811,19.811,0,0,1,10.733,8.2,11.759,11.759,0,0,1-4.182.054Z" transform="translate(-64.56 -82.278)" fill="#515862" fill-rule="evenodd"/>
      <path id="Path_16704" data-name="Path 16704" d="M62.418,48.166a.251.251,0,0,0-.354-.355,12.106,12.106,0,1,0,20.494,10.6c0-.022.02-.12.024-.142a1.983,1.983,0,0,0-.5-.074c0,.008,0,.043,0,.051A11.606,11.606,0,1,1,62.418,48.166Z" transform="translate(-56.865 -47.738)" fill="#515862"/>
      <path id="Path_16705" data-name="Path 16705" d="M60.663,91.434A19.428,19.428,0,0,1,76.29,99.713l.4-.3a19.954,19.954,0,0,0-16.049-8.48Z" transform="translate(-58.445 -79.873)" fill="#515862"/>
      <path id="Path_16706" data-name="Path 16706" d="M60.642,91.451a13.436,13.436,0,0,1,6.375,3.5,8.145,8.145,0,0,1,2.754,5.193l.5-.035a8.633,8.633,0,0,0-2.909-5.52c-2.4-2.286-5.611-3.586-6.7-3.633l-.021.5Z" transform="translate(-58.445 -79.89)" fill="#515862"/>
      <path id="Path_16707" data-name="Path 16707" d="M75.174,90.046a13.759,13.759,0,0,1-23.113-10.09.251.251,0,0,1,.5,0,13.257,13.257,0,0,0,22.266,9.727,3.149,3.149,0,0,0,.345.363Z" transform="translate(-52.061 -71.522)" fill="#515862"/>
      <path id="Path_16708" data-name="Path 16708" d="M126.545,107.3a2.017,2.017,0,0,0-.464-3.314,2.016,2.016,0,0,0,.464,3.314Z" transform="translate(-106.636 -89.59)" fill="#515862" fill-rule="evenodd"/>
      <path id="Path_16709" data-name="Path 16709" d="M123.525,101.179a2.482,2.482,0,0,1,.595,4.255l-.106.083-.124-.05a2.492,2.492,0,0,1-1.025-.777,2.481,2.481,0,0,1,.431-3.478l.106-.083Zm.66,1.061a2.017,2.017,0,0,0-.71-.575,2.024,2.024,0,0,0-.523.746,2.024,2.024,0,0,0,.278,1.993,2.027,2.027,0,0,0,.71.575,2.021,2.021,0,0,0,.245-2.74Z" transform="translate(-104.352 -87.462)" fill="#515862"/>
      <path id="Path_16710" data-name="Path 16710" d="M138.6,95.041a2.015,2.015,0,0,0-.464-3.314,2.015,2.015,0,0,0-.649,1.781,2,2,0,0,0,.4.959A2.036,2.036,0,0,0,138.6,95.041Z" transform="translate(-115.606 -80.466)" fill="#515862"/>
      <path id="Path_16711" data-name="Path 16711" d="M135.58,88.916a2.482,2.482,0,0,1,.6,4.255l-.106.083-.124-.05a2.483,2.483,0,0,1-1.524-1.957,2.48,2.48,0,0,1,.929-2.3l.106-.083.124.05Zm.66,1.061a2.032,2.032,0,0,0-.709-.576,2.019,2.019,0,0,0-.65,1.781,2,2,0,0,0,.4.958,2.024,2.024,0,0,0,.71.576,2.037,2.037,0,0,0,.523-.746,2.023,2.023,0,0,0-.278-1.993Z" transform="translate(-113.322 -78.338)" fill="#515862"/>
      <path id="Path_16712" data-name="Path 16712" d="M148.806,79.591a2.015,2.015,0,0,0-.465-3.314,2.015,2.015,0,0,0-.649,1.781,2.011,2.011,0,0,0,1.114,1.533Z" transform="translate(-123.199 -68.971)" fill="#515862" fill-rule="evenodd"/>
      <path id="Path_16713" data-name="Path 16713" d="M145.786,73.465a2.485,2.485,0,0,1,1.524,1.957,2.465,2.465,0,0,1-.156,1.27,2.493,2.493,0,0,1-.774,1.028l-.106.083-.123-.05a2.5,2.5,0,0,1-1.025-.777,2.483,2.483,0,0,1-.344-2.45,2.5,2.5,0,0,1,.774-1.028l.106-.083Zm.66,1.062a2.036,2.036,0,0,0-.71-.575,2.037,2.037,0,0,0-.523.747,2.021,2.021,0,0,0,.278,1.993,2.033,2.033,0,0,0,.71.575,2.021,2.021,0,0,0,.245-2.74Z" transform="translate(-120.915 -66.842)" fill="#515862"/>
      <path id="Path_16714" data-name="Path 16714" d="M142.354,114.242a2.029,2.029,0,0,0,.636.653,2.022,2.022,0,0,0,2.009.1,2.036,2.036,0,0,0,.7-.591,2.017,2.017,0,0,0-3.343-.16Z" transform="translate(-119.242 -96.614)" fill="#515862" fill-rule="evenodd"/>
      <path id="Path_16715" data-name="Path 16715" d="M145.577,112.1a2.481,2.481,0,0,1-2.206,1.134,2.462,2.462,0,0,1-1.219-.388,2.5,2.5,0,0,1-.866-.952l-.062-.119.072-.112a2.489,2.489,0,0,1,2.206-1.134,2.483,2.483,0,0,1,2.085,1.341l.062.119-.073.112Zm-1.165.452a2.042,2.042,0,0,0,.7-.591,2.039,2.039,0,0,0-.636-.653,2.018,2.018,0,0,0-2.707.492,2.021,2.021,0,0,0,2.647.752Z" transform="translate(-118.401 -94.454)" fill="#515862"/>
      <path id="Path_16716" data-name="Path 16716" d="M152.213,98.529a2.043,2.043,0,0,0,.857.312,2.017,2.017,0,0,0,2.224-1.619,2.015,2.015,0,0,0-3.081,1.306Z" transform="translate(-126.577 -84.312)" fill="#515862"/>
      <path id="Path_16717" data-name="Path 16717" d="M154.738,94.382a2.508,2.508,0,0,1-.485,1.192,2.484,2.484,0,0,1-2.278.966,2.5,2.5,0,0,1-1.193-.482l-.108-.081.017-.132a2.484,2.484,0,0,1,1.5-1.979,2.469,2.469,0,0,1,1.267-.179,2.5,2.5,0,0,1,1.194.481l.108.081-.016.133Zm-.856.912a2.012,2.012,0,0,0,.372-.834,2.016,2.016,0,0,0-1.888-.166,2,2,0,0,0-.821.639,2.022,2.022,0,0,0-.372.834,2.013,2.013,0,0,0,1.888.166,2,2,0,0,0,.821-.638Z" transform="translate(-125.432 -81.911)" fill="#515862"/>
    </g>
  </g>
</svg>
