<svg id="Group_2977" data-name="Group 2977" xmlns="http://www.w3.org/2000/svg" width="28.405" height="28.405" viewBox="0 0 28.405 28.405">
  <circle id="Ellipse_434" data-name="Ellipse 434" cx="9.5" cy="9.5" r="9.5" transform="translate(5.355 5)" fill="#fff"/>
  <g id="_42940239036e2637f3dd15b7dd6d230f" data-name="42940239036e2637f3dd15b7dd6d230f" transform="translate(0)">
    <path id="Path_2254" data-name="Path 2254" d="M17.333,7.2a2.45,2.45,0,0,0-1.405-1.4,4.092,4.092,0,0,0-1.373-.254c-.78-.036-1.013-.044-2.988-.044s-2.209.009-2.988.044A4.092,4.092,0,0,0,7.2,5.8,2.45,2.45,0,0,0,5.8,7.2a4.092,4.092,0,0,0-.254,1.373c-.036.78-.044,1.013-.044,2.988s.009,2.209.044,2.988A4.092,4.092,0,0,0,5.8,15.929a2.45,2.45,0,0,0,1.405,1.4,4.092,4.092,0,0,0,1.373.254c.78.036,1.013.044,2.988.044s2.209-.009,2.988-.044a4.092,4.092,0,0,0,1.374-.254,2.45,2.45,0,0,0,1.4-1.405,4.092,4.092,0,0,0,.254-1.373c.036-.78.044-1.013.044-2.988s-.009-2.209-.044-2.988A4.092,4.092,0,0,0,17.333,7.2Zm-5.767,8.162a3.8,3.8,0,1,1,3.8-3.8,3.8,3.8,0,0,1-3.8,3.8ZM15.514,8.5a.888.888,0,1,1,.888-.888.888.888,0,0,1-.888.888Z" transform="translate(2.637 2.637)" fill="#39454e"/>
    <ellipse id="Ellipse_433" data-name="Ellipse 433" cx="2.466" cy="2.466" rx="2.466" ry="2.466" transform="translate(11.736 11.736)" fill="#39454e"/>
    <path id="Path_2255" data-name="Path 2255" d="M14.2,0a14.2,14.2,0,1,0,14.2,14.2A14.2,14.2,0,0,0,14.2,0Zm7.353,17.253a5.43,5.43,0,0,1-.345,1.795,3.781,3.781,0,0,1-2.163,2.163,5.43,5.43,0,0,1-1.795.345c-.79.036-1.042.044-3.051.044s-2.261-.009-3.051-.044a5.43,5.43,0,0,1-1.795-.345,3.781,3.781,0,0,1-2.163-2.163,5.43,5.43,0,0,1-.345-1.795c-.036-.79-.044-1.042-.044-3.051s.009-2.261.044-3.051a5.43,5.43,0,0,1,.345-1.795A3.781,3.781,0,0,1,9.358,7.195a5.43,5.43,0,0,1,1.795-.345c.79-.036,1.042-.044,3.051-.044s2.261.009,3.051.044a5.43,5.43,0,0,1,1.795.345,3.781,3.781,0,0,1,2.163,2.163,5.43,5.43,0,0,1,.345,1.795c.036.79.044,1.042.044,3.051S21.591,16.463,21.556,17.253Z" fill="#39454e"/>
  </g>
</svg>
