<svg xmlns="http://www.w3.org/2000/svg" width="28" height="28" viewBox="0 0 28 28">
  <g id="Group_2978" data-name="Group 2978" transform="translate(-334.455 -6361)">
    <ellipse id="Ellipse_436" data-name="Ellipse 436" cx="11" cy="10.5" rx="11" ry="10.5" transform="translate(338 6365)" fill="#fff"/>
    <path id="_0640943babcfc0daa2662fd8a479c054" data-name="0640943babcfc0daa2662fd8a479c054" d="M21.025,7.025a14,14,0,1,0,14,14A14,14,0,0,0,21.025,7.025ZM17.29,27.793H14.216V17.863H17.29ZM15.738,16.562a1.832,1.832,0,1,1,1.818-1.832A1.825,1.825,0,0,1,15.738,16.562ZM28.809,27.793H25.75V22.581c0-1.43-.543-2.228-1.674-2.228-1.23,0-1.873.831-1.873,2.228v5.213H19.255V17.863H22.2V19.2A3.463,3.463,0,0,1,25.2,17.56c2.106,0,3.613,1.286,3.613,3.946v6.288Z" transform="translate(327.43 6353.975)" fill="#39454e"/>
  </g>
</svg>
